<?xml version="1.0" encoding="UTF-8" standalone="no"?>
<svg
   xmlns:dc="http://purl.org/dc/elements/1.1/"
   xmlns:cc="http://creativecommons.org/ns#"
   xmlns:rdf="http://www.w3.org/1999/02/22-rdf-syntax-ns#"
   xmlns:svg="http://www.w3.org/2000/svg"
   xmlns="http://www.w3.org/2000/svg"
   xmlns:sodipodi="http://sodipodi.sourceforge.net/DTD/sodipodi-0.dtd"
   xmlns:inkscape="http://www.inkscape.org/namespaces/inkscape"
   width="40"
   height="40"
   viewBox="0 0 40 40"
   version="1.1"
   id="svg34"
   sodipodi:docname="Logo2.svg"
   style="fill:none"
   inkscape:version="0.92.5 (2060ec1f9f, 2020-04-08)">
  <metadata
     id="metadata40">
    <rdf:RDF>
      <cc:Work
         rdf:about="">
        <dc:format>image/svg+xml</dc:format>
        <dc:type
           rdf:resource="http://purl.org/dc/dcmitype/StillImage" />
        <dc:title></dc:title>
      </cc:Work>
    </rdf:RDF>
  </metadata>
  <defs
     id="defs38" />
  <sodipodi:namedview
     pagecolor="#ffffff"
     bordercolor="#666666"
     borderopacity="1"
     objecttolerance="10"
     gridtolerance="10"
     guidetolerance="10"
     inkscape:pageopacity="0"
     inkscape:pageshadow="2"
     inkscape:window-width="1920"
     inkscape:window-height="997"
     id="namedview36"
     showgrid="false"
     inkscape:zoom="4.7058824"
     inkscape:cx="42.5"
     inkscape:cy="20"
     inkscape:window-x="0"
     inkscape:window-y="0"
     inkscape:window-maximized="1"
     inkscape:current-layer="svg34" />
  <path
     d="M 32.08,5.37739 C 31.7557,4.88075 31.2819,4.86649 30.742,4.85023 30.6808,4.84839 30.6188,4.84653 30.5561,4.84393 30.5083,4.84173 30.4556,4.84258 30.4005,4.84346 30.1815,4.84698 29.9254,4.85109 29.7964,4.66712 29.6468,4.45383 29.661,4.04163 29.6727,3.70135 29.6764,3.59382 29.6798,3.49341 29.6778,3.4088 29.6568,2.61832 29.6129,1.778628 29.3078,1.49792 29.0777,1.2873098 28.3893,1.316487 27.7545,1.3433954 c -0.2058,0.00872 -0.406,0.017208 -0.5831,0.017208 H 13.65846 c -0.27207,0 -0.55727,-0.022154 -0.83749,-0.043922 C 12.27495,1.2742662 11.74783,1.2333188 11.3735,1.360603 10.83025,1.546231 10.79346,2.52167 10.75883,3.44019 l -0.0019,0.04942 C 10.72785,4.24788 10.53993,4.83299 9.91712,4.77406 9.19276,4.70661 8.471967,4.68535 8.144457,5.34094 7.75766,6.11661 7.837433,6.92858 7.980317,8.38292 c 0.02041,0.20775 0.04211,0.4286 0.06392,0.66433 H 32.2889 C 32.3028,8.87495 32.3175,8.70486 32.3321,8.53753 32.4456,7.22906 32.5445,6.08902 32.08,5.37739 Z"
     id="path2"
     inkscape:connector-curvature="0"
     style="fill:#8047f8" />
  <path
     d="m 9.93237,10.48967 c 0.37865,5.12483 0.75317,10.25543 1.1277,15.38623 l 2.3e-4,0.0031 c 0.20335,2.7858 0.40671,5.5716 0.61073,8.3566 h 0.77359 c 0.05271,0.4359 0.11303,0.9741 0.17662,1.5415 0.12909,1.1518 0.2717,2.4243 0.3916,3.2062 h 0.08556 c 0.78797,-0.2883 6.2353,-2.6167 6.2377,-11.8865 -10e-4,-0.0264 -10e-5,-0.0529 0.0026,-0.0791 h -1.3458 c -0.0651,-6e-4 -0.1283,-0.0224 -0.1797,-0.0619 -0.05143,-0.0395 -0.08829,-0.0947 -0.10493,-0.157 -0.13114,-0.3239 -0.23689,-0.6574 -0.31629,-0.9974 -0.79171,0.4472 -1.42042,1.13 -1.79652,1.9511 -0.35702,-0.841 -0.40375,-1.7792 -0.13203,-2.6508 0.27173,-0.8716 0.84463,-1.621 1.61859,-2.1174 0.01,-2.705 1.02278,-5.3125 2.84658,-7.3289 l 0.0285,-0.0251 c 0.053,-0.0458 0.1209,-0.0713 0.1913,-0.0719 0.0407,4e-4 0.0809,0.0091 0.118,0.0256 0.0376,0.0167 0.0712,0.041 0.0987,0.0714 1.8452,2.0192 2.8526,4.6517 2.8213,7.3727 0.7884,0.4825 1.373,1.2314 1.6452,2.1077 0.2722,0.8763 0.2136,1.8205 -0.1649,2.6573 -0.3741,-0.8224 -1.0034,-1.5058 -1.7966,-1.951 -0.0484,0.3295 -0.1377,0.6519 -0.2657,0.9599 -0.0442,0.1313 -0.1328,0.2157 -0.2214,0.2157 h -1.4352 c 0.0023,0.0157 0.0039,0.0315 0.0048,0.0474 l 6e-4,0.0036 v 0.0077 c 5e-4,0.0136 5e-4,0.0273 0,0.041 0.0197,9.5359 5.8113,11.7004 6.2995,11.8659 h 0.167 c 0.0426,-0.7511 0.1814,-1.7875 0.3167,-2.7979 0.0932,-0.6962 0.1848,-1.3802 0.2421,-1.9498 h 0.7825 c 0.2505,-3.5079 0.5081,-7.006 0.7657,-10.5042 l 2e-4,-0.0019 10e-5,-0.001 c 0.3295,-4.4746 0.659,-8.9493 0.9736,-13.4448 H 9.98248 C 9.92342,10.29524 9.92745,10.39185 9.93237,10.48967 Z M 20.1484,15.5584 H 20.1469 20.15 Z"
     id="path4"
     inkscape:connector-curvature="0"
     style="clip-rule:evenodd;fill:#8047f8;fill-rule:evenodd" />
</svg>
